<mxfile host="65bd71144e">
    <diagram id="tX2esJLDA4KaB_AFCcth" name="Page-1">
        <mxGraphModel dx="584" dy="984" grid="1" gridSize="10" guides="1" tooltips="1" connect="1" arrows="1" fold="1" page="1" pageScale="1" pageWidth="850" pageHeight="1100" math="0" shadow="0">
            <root>
                <mxCell id="0"/>
                <mxCell id="1" parent="0"/>
                <mxCell id="2" value="SQL (Structured Query Language)" style="swimlane;whiteSpace=wrap;html=1;" vertex="1" parent="1">
                    <mxGeometry x="50" y="60" width="770" height="350" as="geometry"/>
                </mxCell>
                <mxCell id="ROp97GzAPW1xJmmWN_Dl-3" value="&lt;h1&gt;SQL&lt;/h1&gt;&lt;div style=&quot;box-sizing: border-box; font-family: -apple-system, BlinkMacSystemFont, &amp;quot;Segoe UI&amp;quot;, system-ui, &amp;quot;Apple Color Emoji&amp;quot;, &amp;quot;Segoe UI Emoji&amp;quot;, &amp;quot;Segoe UI Web&amp;quot;, sans-serif;&quot;&gt;&lt;font style=&quot;font-size: 14px;&quot;&gt;A Linguagem de consulta estruturada (SQL) é uma linguagem de programação para armazenar e processar informações em um banco de dados relacional.&lt;/font&gt;&lt;/div&gt;" style="text;html=1;strokeColor=none;fillColor=none;spacing=5;spacingTop=-20;whiteSpace=wrap;overflow=hidden;rounded=0;" vertex="1" parent="2">
                    <mxGeometry x="15" y="40" width="190" height="150" as="geometry"/>
                </mxCell>
                <mxCell id="ROp97GzAPW1xJmmWN_Dl-18" style="edgeStyle=none;html=1;entryX=0.5;entryY=0;entryDx=0;entryDy=0;fontSize=14;" edge="1" parent="2" source="ROp97GzAPW1xJmmWN_Dl-4" target="ROp97GzAPW1xJmmWN_Dl-14">
                    <mxGeometry relative="1" as="geometry"/>
                </mxCell>
                <mxCell id="ROp97GzAPW1xJmmWN_Dl-19" style="edgeStyle=none;html=1;entryX=0.5;entryY=0;entryDx=0;entryDy=0;fontSize=14;" edge="1" parent="2" source="ROp97GzAPW1xJmmWN_Dl-4" target="ROp97GzAPW1xJmmWN_Dl-15">
                    <mxGeometry relative="1" as="geometry"/>
                </mxCell>
                <mxCell id="ROp97GzAPW1xJmmWN_Dl-20" style="edgeStyle=none;html=1;entryX=0.5;entryY=0;entryDx=0;entryDy=0;fontSize=14;" edge="1" parent="2" source="ROp97GzAPW1xJmmWN_Dl-4" target="ROp97GzAPW1xJmmWN_Dl-16">
                    <mxGeometry relative="1" as="geometry"/>
                </mxCell>
                <mxCell id="ROp97GzAPW1xJmmWN_Dl-22" style="edgeStyle=none;html=1;entryX=0.5;entryY=0;entryDx=0;entryDy=0;fontSize=14;" edge="1" parent="2" source="ROp97GzAPW1xJmmWN_Dl-4" target="ROp97GzAPW1xJmmWN_Dl-7">
                    <mxGeometry relative="1" as="geometry"/>
                </mxCell>
                <mxCell id="ROp97GzAPW1xJmmWN_Dl-23" style="edgeStyle=none;html=1;entryX=0.5;entryY=0;entryDx=0;entryDy=0;fontSize=14;" edge="1" parent="2" source="ROp97GzAPW1xJmmWN_Dl-4" target="ROp97GzAPW1xJmmWN_Dl-5">
                    <mxGeometry relative="1" as="geometry"/>
                </mxCell>
                <mxCell id="ROp97GzAPW1xJmmWN_Dl-4" value="SQL" style="rounded=1;whiteSpace=wrap;html=1;fontSize=14;fillColor=#0050ef;strokeColor=#001DBC;fontColor=#ffffff;" vertex="1" parent="2">
                    <mxGeometry x="245" y="40" width="505" height="60" as="geometry"/>
                </mxCell>
                <mxCell id="ROp97GzAPW1xJmmWN_Dl-5" value="DDL" style="whiteSpace=wrap;html=1;fontSize=14;fillColor=#6a00ff;strokeColor=#3700CC;fontColor=#ffffff;rounded=1;" vertex="1" parent="2">
                    <mxGeometry x="270" y="160" width="60" height="60" as="geometry"/>
                </mxCell>
                <mxCell id="ROp97GzAPW1xJmmWN_Dl-7" value="DML" style="whiteSpace=wrap;html=1;fontSize=14;fillColor=#6a00ff;strokeColor=#3700CC;fontColor=#ffffff;rounded=1;" vertex="1" parent="2">
                    <mxGeometry x="355" y="160" width="60" height="60" as="geometry"/>
                </mxCell>
                <mxCell id="ROp97GzAPW1xJmmWN_Dl-14" value="DQL" style="whiteSpace=wrap;html=1;fontSize=14;fillColor=#6a00ff;strokeColor=#3700CC;fontColor=#ffffff;rounded=1;" vertex="1" parent="2">
                    <mxGeometry x="440" y="160" width="60" height="60" as="geometry"/>
                </mxCell>
                <mxCell id="ROp97GzAPW1xJmmWN_Dl-15" value="DCL" style="whiteSpace=wrap;html=1;fontSize=14;fillColor=#6a00ff;strokeColor=#3700CC;fontColor=#ffffff;rounded=1;" vertex="1" parent="2">
                    <mxGeometry x="520" y="160" width="60" height="60" as="geometry"/>
                </mxCell>
                <mxCell id="ROp97GzAPW1xJmmWN_Dl-16" value="DTL" style="whiteSpace=wrap;html=1;fontSize=14;fillColor=#6a00ff;strokeColor=#3700CC;fontColor=#ffffff;rounded=1;" vertex="1" parent="2">
                    <mxGeometry x="590" y="160" width="60" height="60" as="geometry"/>
                </mxCell>
            </root>
        </mxGraphModel>
    </diagram>
</mxfile>